<svg xmlns="http://www.w3.org/2000/svg" width="499.192" height="499.192" viewBox="0.404 0.34 499.192 499.192"><circle cx="250" cy="249.936" r="249.596" fill="#2F2F2F"/><path fill="none" stroke="#E6EBEB" stroke-linecap="round" stroke-linejoin="round" stroke-width="32" d="M 107.834 120.003 C 76.786 154.68 59.403 199.461 58.924 246.003 C 57.744 352.353 144.574 439.803 250.924 440.003 C 357.124 440.203 442.924 354.173 442.924 248.003 C 442.924 143.463 359.374 58.393 255.424 56.003 C 252.958 55.924 250.917 57.906 250.924 60.373 L 250.924 144.003"/><path fill="#E6EBEB" d="M 224.304 265.633 L 145.304 152.633 C 141.722 147.502 145.038 140.416 151.273 139.88 C 153.17 139.717 155.063 140.224 156.624 141.313 L 269.624 220.313 C 289.925 234.935 286.785 266.05 263.972 276.321 C 253.677 280.956 241.715 279.915 232.374 273.573 C 229.249 271.408 226.52 268.722 224.304 265.633 Z"/></svg>